<svg width="24" height="24" viewBox="0 0 24 24" fill="none" xmlns="http://www.w3.org/2000/svg">
<g clip-path="url(#clip0_186_529)">
<path d="M4.25625 0.299988H19.7625C22.1062 0.299988 24.0187 2.19374 24.0187 4.55624V19.4625C24.0187 21.8062 22.125 23.7187 19.7625 23.7187H4.25625C1.89375 23.7 0 21.8062 0 19.4437V4.55624C0 2.19374 1.89375 0.299988 4.25625 0.299988Z" fill="#330000"/>
<path d="M11.6063 14.3062H7.87506L7.12506 16.65C7.10631 16.7437 7.03131 16.8 6.93756 16.7812H5.06256C4.95006 16.7812 4.93131 16.725 4.95006 16.5937L8.17506 7.33124C8.21256 7.23749 8.23131 7.12499 8.26881 6.99374C8.30631 6.78749 8.32506 6.56249 8.32506 6.33749C8.30631 6.28124 8.36256 6.24374 8.40006 6.22499H10.9876C11.0626 6.22499 11.1001 6.26249 11.1188 6.29999L14.7751 16.5937C14.8126 16.7062 14.7751 16.7625 14.6813 16.7625H12.5813C12.5063 16.7812 12.4501 16.725 12.4126 16.65L11.6063 14.3062ZM8.45631 12.2625H10.9876C10.9313 12.0562 10.8563 11.7937 10.7626 11.55C10.6688 11.2875 10.5751 10.9875 10.5001 10.6875C10.4063 10.3687 10.3126 10.0687 10.2188 9.76874C10.1251 9.44999 10.0313 9.16874 9.95631 8.88749C9.88131 8.60624 9.80631 8.34374 9.73131 8.09999H9.71256C9.61881 8.53124 9.50631 8.96249 9.37506 9.39374C9.22506 9.88124 9.07506 10.3687 8.90631 10.875C8.75631 11.3812 8.60631 11.85 8.45631 12.2625ZM17.0063 8.00624C16.6688 8.02499 16.3501 7.89374 16.1251 7.64999C15.9001 7.40624 15.7688 7.06874 15.7876 6.73124C15.7688 6.39374 15.9001 6.07499 16.1438 5.84999C16.3876 5.62499 16.7063 5.49374 17.0251 5.49374C17.4188 5.49374 17.7188 5.60624 17.9438 5.84999C18.1688 6.09374 18.2813 6.41249 18.2813 6.73124C18.3001 7.06874 18.1688 7.40624 17.9251 7.64999C17.6813 7.89374 17.3438 8.02499 17.0063 8.00624ZM15.8813 16.6875V8.98124C15.8813 8.88749 15.9188 8.84999 16.0126 8.84999H18.0001C18.0938 8.84999 18.1313 8.90624 18.1313 8.98124V16.6875C18.1313 16.8 18.0938 16.8562 18.0001 16.8562H16.0313C15.9376 16.8375 15.8813 16.7812 15.8813 16.6875Z" fill="#FF9A00"/>
</g>
<defs>
<clipPath id="clip0_186_529">
<rect width="24" height="24" fill="white"/>
</clipPath>
</defs>
</svg>
