<svg width="24" height="24" viewBox="0 0 24 24" fill="none" xmlns="http://www.w3.org/2000/svg">
<g clip-path="url(#clip0_186_524)">
<path d="M18.375 0H5.625C2.5184 0 0 2.5184 0 5.625V18.375C0 21.4816 2.5184 24 5.625 24H18.375C21.4816 24 24 21.4816 24 18.375V5.625C24 2.5184 21.4816 0 18.375 0Z" fill="#001E36"/>
<path d="M5.40002 16.6912V6.40123C5.40002 6.33123 5.43002 6.29123 5.50003 6.29123C5.67002 6.29123 5.83003 6.29123 6.06002 6.28123C6.30002 6.27123 6.55003 6.27123 6.82003 6.26123C7.09003 6.25123 7.38002 6.25123 7.69003 6.24123C8.00002 6.23123 8.30002 6.23123 8.60002 6.23123C9.42001 6.23123 10.1 6.33123 10.66 6.54123C11.16 6.71123 11.62 6.99123 12 7.36123C12.32 7.68123 12.57 8.07123 12.73 8.50123C12.88 8.92123 12.96 9.35123 12.96 9.80127C12.96 10.6612 12.76 11.3712 12.36 11.9313C11.96 12.4912 11.4 12.9112 10.75 13.1512C10.07 13.4013 9.32002 13.4913 8.50003 13.4913C8.26003 13.4913 8.10002 13.4913 8.00002 13.4812C7.90003 13.4712 7.76002 13.4712 7.57003 13.4712V16.6812C7.58002 16.7512 7.53002 16.8112 7.46002 16.8213C7.45003 16.8213 7.44002 16.8213 7.42003 16.8213H5.52002C5.44003 16.8213 5.40002 16.7812 5.40002 16.6912ZM7.58002 8.22123V11.5812C7.72003 11.5912 7.85002 11.6013 7.97002 11.6013H8.50003C8.89003 11.6013 9.28003 11.5413 9.64998 11.4213C9.97005 11.3313 10.25 11.1412 10.47 10.8912C10.68 10.6413 10.78 10.3012 10.78 9.86127C10.79 9.55124 10.71 9.24123 10.55 8.97123C10.38 8.71123 10.14 8.51123 9.85005 8.40123C9.48001 8.25123 9.08002 8.19123 8.67002 8.20123C8.41003 8.20123 8.18002 8.20123 7.99003 8.21123C7.79002 8.20123 7.65002 8.21123 7.58002 8.22123Z" fill="#31A8FF"/>
<path d="M19.2 10.9713C18.9 10.8113 18.58 10.7013 18.24 10.6313C17.8699 10.5513 17.5 10.5012 17.1199 10.5012C16.92 10.4913 16.71 10.5213 16.5199 10.5713C16.39 10.6013 16.2799 10.6713 16.21 10.7712C16.1599 10.8513 16.1299 10.9512 16.1299 11.0412C16.1299 11.1312 16.17 11.2212 16.23 11.3013C16.32 11.4113 16.44 11.5013 16.57 11.5713C16.8 11.6913 17.04 11.8013 17.28 11.9013C17.82 12.0813 18.34 12.3312 18.82 12.6312C19.15 12.8412 19.42 13.1213 19.6099 13.4613C19.77 13.7813 19.8499 14.1312 19.84 14.4912C19.8499 14.9613 19.71 15.4313 19.45 15.8213C19.17 16.2213 18.78 16.5312 18.33 16.7112C17.8399 16.9212 17.2399 17.0313 16.5199 17.0313C16.06 17.0313 15.61 16.9913 15.16 16.9013C14.8099 16.8413 14.46 16.7313 14.14 16.5813C14.07 16.5413 14.02 16.4712 14.0299 16.3913V14.6513C14.0299 14.6213 14.04 14.5812 14.07 14.5613C14.1 14.5413 14.13 14.5512 14.16 14.5713C14.55 14.8013 14.9599 14.9613 15.4 15.0612C15.78 15.1613 16.18 15.2112 16.5799 15.2112C16.96 15.2112 17.23 15.1613 17.41 15.0713C17.5699 15.0012 17.68 14.8313 17.68 14.6513C17.68 14.5113 17.5999 14.3813 17.44 14.2512C17.28 14.1213 16.95 13.9713 16.4599 13.7813C15.9499 13.6013 15.48 13.3613 15.04 13.0613C14.73 12.8412 14.47 12.5513 14.28 12.2112C14.1199 11.8913 14.04 11.5413 14.05 11.1912C14.05 10.7613 14.17 10.3512 14.3899 9.98128C14.64 9.58125 15.01 9.26125 15.4399 9.06124C15.91 8.82124 16.5 8.71124 17.2099 8.71124C17.62 8.71124 18.04 8.74124 18.45 8.80124C18.75 8.84125 19.0399 8.92124 19.3099 9.03124C19.35 9.04124 19.39 9.08125 19.41 9.12124C19.42 9.16124 19.4299 9.20125 19.4299 9.24124V10.8713C19.4299 10.9113 19.41 10.9512 19.38 10.9713C19.29 10.9913 19.24 10.9913 19.2 10.9713Z" fill="#31A8FF"/>
</g>
<defs>
<clipPath id="clip0_186_524">
<rect width="24" height="24" fill="white"/>
</clipPath>
</defs>
</svg>
