<svg width="40" height="40" viewBox="0 0 40 40" fill="none" xmlns="http://www.w3.org/2000/svg">
<g clip-path="url(#clip0_156_1466)">
<path d="M30.625 0H9.375C4.19733 0 0 4.19733 0 9.375V30.625C0 35.8027 4.19733 40 9.375 40H30.625C35.8027 40 40 35.8027 40 30.625V9.375C40 4.19733 35.8027 0 30.625 0Z" fill="#001E36"/>
<path d="M9 27.8187V10.6687C9 10.5521 9.05 10.4854 9.16667 10.4854C9.45 10.4854 9.71667 10.4854 10.1 10.4687C10.5 10.4521 10.9167 10.4521 11.3667 10.4354C11.8167 10.4187 12.3 10.4187 12.8167 10.4021C13.3333 10.3854 13.8333 10.3854 14.3333 10.3854C15.7 10.3854 16.8333 10.5521 17.7667 10.9021C18.6 11.1854 19.3667 11.6521 20 12.2687C20.5333 12.8021 20.95 13.4521 21.2167 14.1687C21.4667 14.8687 21.6 15.5854 21.6 16.3355C21.6 17.7688 21.2667 18.952 20.6 19.8855C19.9333 20.8188 19 21.5188 17.9167 21.9188C16.7833 22.3355 15.5333 22.4855 14.1667 22.4855C13.7667 22.4855 13.5 22.4855 13.3333 22.4688C13.1667 22.452 12.9333 22.452 12.6167 22.452V27.802C12.6333 27.9188 12.55 28.0188 12.4333 28.0355C12.4167 28.0355 12.4 28.0355 12.3667 28.0355H9.2C9.06667 28.0355 9 27.9688 9 27.8187ZM12.6333 13.7021V19.302C12.8667 19.3188 13.0833 19.3355 13.2833 19.3355H14.1667C14.8167 19.3355 15.4667 19.2355 16.0833 19.0355C16.6167 18.8855 17.0833 18.5688 17.45 18.152C17.8 17.7355 17.9667 17.1687 17.9667 16.4355C17.9833 15.9187 17.85 15.4021 17.5833 14.9521C17.3 14.5187 16.9 14.1854 16.4167 14.0021C15.8 13.7521 15.1333 13.6521 14.45 13.6687C14.0167 13.6687 13.6333 13.6687 13.3167 13.6854C12.9833 13.6687 12.75 13.6854 12.6333 13.7021Z" fill="#31A8FF"/>
<path d="M32 18.2855C31.5 18.0188 30.9668 17.8355 30.4 17.7188C29.7833 17.5855 29.1668 17.502 28.5333 17.502C28.2 17.4855 27.85 17.5355 27.5333 17.6188C27.3168 17.6688 27.1333 17.7855 27.0168 17.952C26.9333 18.0855 26.8833 18.252 26.8833 18.402C26.8833 18.552 26.95 18.702 27.05 18.8355C27.2 19.0188 27.4 19.1688 27.6168 19.2855C28 19.4855 28.4 19.6688 28.8 19.8355C29.7 20.1355 30.5668 20.552 31.3668 21.052C31.9168 21.402 32.3668 21.8688 32.6833 22.4355C32.95 22.9688 33.0833 23.552 33.0668 24.152C33.0833 24.9355 32.85 25.7188 32.4168 26.3688C31.95 27.0355 31.3 27.552 30.55 27.852C29.7333 28.202 28.7333 28.3855 27.5333 28.3855C26.7668 28.3855 26.0168 28.3188 25.2668 28.1688C24.6833 28.0688 24.1 27.8855 23.5668 27.6355C23.45 27.5688 23.3668 27.452 23.3833 27.3188V24.4188C23.3833 24.3688 23.4 24.302 23.45 24.2688C23.5 24.2355 23.55 24.252 23.6 24.2855C24.25 24.6688 24.9333 24.9355 25.6668 25.102C26.3 25.2688 26.9668 25.352 27.6333 25.352C28.2668 25.352 28.7168 25.2688 29.0168 25.1188C29.2833 25.002 29.4668 24.7188 29.4668 24.4188C29.4668 24.1855 29.3333 23.9688 29.0668 23.752C28.8 23.5355 28.25 23.2855 27.4333 22.9688C26.5833 22.6688 25.8 22.2688 25.0668 21.7688C24.55 21.402 24.1168 20.9188 23.8 20.352C23.5333 19.8188 23.4 19.2355 23.4168 18.652C23.4168 17.9355 23.6168 17.252 23.9833 16.6355C24.4 15.9688 25.0168 15.4354 25.7333 15.1021C26.5168 14.7021 27.5 14.5187 28.6833 14.5187C29.3668 14.5187 30.0668 14.5687 30.75 14.6687C31.25 14.7354 31.7333 14.8687 32.1833 15.0521C32.25 15.0687 32.3168 15.1354 32.35 15.2021C32.3668 15.2687 32.3833 15.3354 32.3833 15.4021V18.1188C32.3833 18.1855 32.35 18.252 32.3 18.2855C32.15 18.3188 32.0668 18.3188 32 18.2855Z" fill="#31A8FF"/>
</g>
<defs>
<clipPath id="clip0_156_1466">
<rect width="40" height="40" fill="white"/>
</clipPath>
</defs>
</svg>
